<?xml version="1.0" standalone="no"?>
<!DOCTYPE svg PUBLIC "-//W3C//DTD SVG 20010904//EN"
 "http://www.w3.org/TR/2001/REC-SVG-20010904/DTD/svg10.dtd">
<svg version="1.0" xmlns="http://www.w3.org/2000/svg"
 width="32.000000pt" height="32.000000pt" viewBox="0 0 32.000000 32.000000"
 preserveAspectRatio="xMidYMid meet">

<g transform="translate(0.000000,32.000000) scale(0.100000,-0.100000)"
fill="current" stroke="current">
<path d="M45 297 c-3 -7 -4 -74 -3 -148 l3 -134 115 0 115 0 0 145 0 145 -113
3 c-86 2 -114 0 -117 -11z m225 -137 l0 -130 -110 0 -110 0 0 130 0 130 110 0
110 0 0 -130z"/>
<path d="M104 256 c-59 -50 -22 -146 56 -146 78 0 115 96 56 146 -15 13 -40
24 -56 24 -16 0 -41 -11 -56 -24z m109 -14 c40 -35 3 -122 -52 -122 -36 0 -71
37 -71 75 0 64 72 92 123 47z"/>
<path d="M143 209 c-15 -15 -5 -39 17 -39 22 0 32 24 17 39 -6 6 -14 11 -17
11 -3 0 -11 -5 -17 -11z m27 -20 c0 -5 -4 -9 -10 -9 -5 0 -10 7 -10 16 0 8 5
12 10 9 6 -3 10 -10 10 -16z"/>
<path d="M90 65 c0 -14 5 -25 10 -25 6 0 10 6 10 13 0 8 4 7 10 -3 7 -12 10
-8 10 15 0 23 -3 27 -10 15 -6 -10 -10 -11 -10 -2 0 6 -4 12 -10 12 -5 0 -10
-11 -10 -25z"/>
<path d="M140 64 c0 -33 33 -30 38 4 3 17 -2 22 -17 22 -16 0 -21 -6 -21 -26z
m30 6 c0 -5 -4 -10 -10 -10 -5 0 -10 5 -10 10 0 6 5 10 10 10 6 0 10 -4 10
-10z"/>
<path d="M190 65 c0 -20 4 -26 18 -23 22 4 22 42 0 46 -14 3 -18 -3 -18 -23z
m17 -7 c-3 -8 -6 -5 -6 6 -1 11 2 17 5 13 3 -3 4 -12 1 -19z"/>
</g>
</svg>
