<?xml version="1.0" standalone="no"?>
<!DOCTYPE svg PUBLIC "-//W3C//DTD SVG 20010904//EN"
 "http://www.w3.org/TR/2001/REC-SVG-20010904/DTD/svg10.dtd">
<svg version="1.0" xmlns="http://www.w3.org/2000/svg"
 width="32.000000pt" height="32.000000pt" viewBox="0 0 32.000000 32.000000"
 preserveAspectRatio="xMidYMid meet">

<g transform="translate(0.000000,32.000000) scale(0.100000,-0.100000)"
fill="current" stroke="current">
<path d="M51 263 c-19 -20 -21 -27 -10 -34 8 -5 9 -9 4 -9 -6 0 -11 -9 -11
-20 0 -11 5 -20 11 -20 5 0 3 -5 -5 -10 -13 -9 -13 -11 0 -20 8 -5 10 -10 5
-10 -6 0 -11 -9 -11 -20 0 -11 5 -20 11 -20 5 0 4 -4 -4 -9 -11 -7 -9 -14 14
-36 22 -23 29 -25 36 -14 5 8 9 9 9 4 0 -6 9 -11 20 -11 11 0 20 5 20 11 0 5
5 3 10 -5 9 -13 11 -13 20 0 5 8 10 10 10 5 0 -6 9 -11 20 -11 11 0 20 5 20
11 0 5 4 4 9 -4 7 -11 14 -9 36 14 23 22 25 29 14 36 -8 5 -9 9 -4 9 6 0 11 9
11 20 0 11 -5 20 -11 20 -5 0 -3 5 5 10 13 9 13 11 0 20 -8 5 -10 10 -5 10 6
0 11 9 11 20 0 11 -5 20 -11 20 -5 0 -4 4 4 9 11 7 9 14 -14 36 -22 23 -29 25
-36 14 -5 -8 -9 -9 -9 -4 0 6 -9 11 -20 11 -11 0 -20 -5 -20 -11 0 -5 -5 -3
-10 5 -9 13 -11 13 -20 0 -5 -8 -10 -10 -10 -4 0 14 -32 13 -42 -1 -5 -6 -8
-5 -8 3 0 18 -12 14 -39 -15z m209 -103 l0 -100 -100 0 -100 0 0 100 0 100
100 0 100 0 0 -100z"/>
<path d="M74 237 c-3 -8 -4 -47 -2 -88 l3 -74 85 0 85 0 0 85 0 85 -83 3 c-63
2 -84 0 -88 -11z m156 -77 l0 -70 -70 0 -70 0 0 70 0 70 70 0 70 0 0 -70z"/>
<path d="M107 183 c-11 -10 -8 -41 4 -48 17 -11 25 5 9 16 -11 8 -12 12 -2 16
6 2 12 9 12 14 0 11 -14 12 -23 2z"/>
<path d="M140 159 c0 -27 2 -29 15 -15 8 8 15 22 15 30 0 9 -7 16 -15 16 -10
0 -15 -10 -15 -31z"/>
<path d="M183 165 c1 -19 7 -30 17 -30 10 0 16 11 17 30 1 20 0 23 -4 8 -6
-29 -20 -29 -26 0 -4 15 -5 12 -4 -8z"/>
</g>
</svg>
