<?xml version="1.0" standalone="no"?>
<!DOCTYPE svg PUBLIC "-//W3C//DTD SVG 20010904//EN"
 "http://www.w3.org/TR/2001/REC-SVG-20010904/DTD/svg10.dtd">
<svg version="1.0" xmlns="http://www.w3.org/2000/svg"
 width="32.000000pt" height="32.000000pt" viewBox="0 0 32.000000 32.000000"
 preserveAspectRatio="xMidYMid meet">

<g transform="translate(0.000000,32.000000) scale(0.100000,-0.100000)"
fill="current" stroke="current">
<path d="M45 307 c-3 -7 -4 -78 -3 -157 l3 -145 115 0 115 0 0 155 0 155 -113
3 c-86 2 -114 0 -117 -11z m45 -12 c0 -12 13 -15 60 -15 48 0 60 3 60 16 0 11
8 14 28 12 l27 -3 0 -145 0 -145 -105 0 -105 0 -3 134 c-1 74 0 141 2 148 7
18 36 16 36 -2z m70 5 c0 -5 -13 -10 -30 -10 -16 0 -30 5 -30 10 0 6 14 10 30
10 17 0 30 -4 30 -10z m40 0 c0 -5 -7 -10 -15 -10 -8 0 -15 5 -15 10 0 6 7 10
15 10 8 0 15 -4 15 -10z"/>
<path d="M72 228 c-12 -12 -17 -143 -6 -172 9 -23 179 -23 188 0 11 29 6 160
-6 172 -16 16 -160 16 -176 0z m173 -21 c3 -12 5 -52 3 -87 l-3 -65 -85 0 -85
0 -3 65 c-5 109 -5 110 88 110 75 0 80 -1 85 -23z"/>
<path d="M93 164 c-4 -11 1 -22 12 -30 18 -13 13 -19 -10 -14 -5 1 -4 -4 3
-11 9 -10 15 -10 24 -1 9 9 7 17 -8 33 -18 22 -18 22 0 15 16 -5 17 -4 6 9
-16 19 -19 19 -27 -1z"/>
<path d="M197 174 c-4 -4 -7 -23 -7 -41 0 -27 4 -34 18 -31 12 2 17 13 17 37
0 33 -13 49 -28 35z m23 -39 c0 -14 -4 -25 -10 -25 -5 0 -10 11 -10 25 0 14 5
25 10 25 6 0 10 -11 10 -25z"/>
<path d="M143 138 c3 -35 23 -49 33 -23 4 9 -1 22 -12 31 -17 14 -17 15 -1 10
9 -3 17 -1 17 4 0 6 -9 10 -20 10 -16 0 -19 -6 -17 -32z m27 -18 c0 -5 -4 -10
-10 -10 -5 0 -10 5 -10 10 0 6 5 10 10 10 6 0 10 -4 10 -10z"/>
</g>
</svg>
