<?xml version="1.0" standalone="no"?>
<!DOCTYPE svg PUBLIC "-//W3C//DTD SVG 20010904//EN"
 "http://www.w3.org/TR/2001/REC-SVG-20010904/DTD/svg10.dtd">
<svg version="1.0" xmlns="http://www.w3.org/2000/svg"
 width="32.000000pt" height="32.000000pt" viewBox="0 0 32.000000 32.000000"
 preserveAspectRatio="xMidYMid meet">

<g transform="translate(0.000000,32.000000) scale(0.100000,-0.100000)"
fill="current" stroke="current">
<path d="M8 271 c9 -6 12 -30 8 -92 -5 -90 2 -149 14 -129 6 9 12 9 29 -1 17
-11 25 -11 41 -1 12 7 20 8 20 2 0 -5 25 -10 55 -10 30 0 55 5 55 10 0 6 15
10 33 10 18 0 38 5 45 12 16 16 16 160 0 176 -8 8 -55 12 -145 12 -82 0 -133
4 -133 10 0 6 -8 10 -17 10 -13 0 -15 -2 -5 -9z m286 -27 c9 -3 16 -12 16 -20
0 -16 -16 -19 -24 -5 -8 13 -218 11 -234 -1 -16 -13 -26 -4 -19 17 5 12 27 15
126 15 66 0 126 -3 135 -6z m-222 -40 c-30 -20 -29 -67 1 -89 12 -10 15 -14 7
-11 -8 3 -23 9 -32 12 -28 10 -24 76 5 90 33 17 44 16 19 -2z m153 -9 c0 -11
-8 -21 -19 -23 -11 -3 -16 0 -11 7 3 6 11 9 16 6 5 -4 9 1 9 9 0 19 -11 21
-28 4 -19 -19 -14 -65 8 -81 18 -13 15 -14 -33 -13 -45 1 -52 4 -52 21 0 11 8
21 18 23 9 2 17 -2 17 -8 0 -7 -6 -10 -13 -7 -8 3 -14 -1 -14 -9 0 -17 9 -18
25 -2 19 19 14 65 -8 81 -18 13 -15 14 33 13 45 -1 52 -4 52 -21z m60 13 c20
-9 25 -18 25 -48 0 -30 -5 -39 -27 -49 -22 -10 -29 -9 -42 3 -9 10 -11 16 -4
16 6 0 13 -6 16 -12 3 -10 7 -10 20 1 25 20 21 67 -5 85 -27 19 -19 21 17 4z
m-175 -18 c0 -5 -2 -10 -4 -10 -3 0 -8 5 -11 10 -3 6 -1 10 4 10 6 0 11 -4 11
-10z m30 6 c0 -3 -4 -8 -10 -11 -5 -3 -10 -1 -10 4 0 6 5 11 10 11 6 0 10 -2
10 -4z m-55 -16 c3 -5 -1 -10 -10 -10 -9 0 -13 5 -10 10 3 6 8 10 10 10 2 0 7
-4 10 -10z m65 -10 c0 -5 -5 -10 -11 -10 -5 0 -7 5 -4 10 3 6 8 10 11 10 2 0
4 -4 4 -10z m130 0 c0 -5 -5 -10 -11 -10 -5 0 -7 5 -4 10 3 6 8 10 11 10 2 0
4 -4 4 -10z m-200 -14 c0 -3 -4 -8 -10 -11 -5 -3 -10 -1 -10 4 0 6 5 11 10 11
6 0 10 -2 10 -4z m130 0 c0 -3 -4 -8 -10 -11 -5 -3 -10 -1 -10 4 0 6 5 11 10
11 6 0 10 -2 10 -4z m70 -10 c0 -11 -19 -15 -25 -6 -3 5 1 10 9 10 9 0 16 -2
16 -4z m-180 -10 c0 -3 -4 -8 -10 -11 -5 -3 -10 -1 -10 4 0 6 5 11 10 11 6 0
10 -2 10 -4z m-46 -35 c3 -5 55 -9 116 -9 61 0 113 4 116 9 8 14 24 10 24 -6
0 -22 -32 -26 -160 -23 -100 3 -115 5 -118 21 -4 18 13 24 22 8z"/>
</g>
</svg>
